<?xml version="1.0" encoding="utf-8"?>
<!-- Generator: Adobe Illustrator 16.0.4, SVG Export Plug-In . SVG Version: 6.00 Build 0)  -->
<!DOCTYPE svg PUBLIC "-//W3C//DTD SVG 1.1//EN" "http://www.w3.org/Graphics/SVG/1.1/DTD/svg11.dtd">
<svg version="1.1" xmlns="http://www.w3.org/2000/svg" xmlns:xlink="http://www.w3.org/1999/xlink" x="0px" y="0px" width="62.93px"
	 height="41.536px" viewBox="0 0 62.93 41.536" enable-background="new 0 0 62.93 41.536" xml:space="preserve">
<g id="Layer_1" display="none">
</g>
<g id="Layer_2">
	<g>
		<g>
			<path fill="#012168" d="M4.225,30.63c0-3.459,5.187-6.388,12.351-7.388C7.149,23.878,0,26.944,0,30.63s7.149,6.752,16.576,7.388
				C9.413,37.018,4.225,34.089,4.225,30.63z"/>
		</g>
		<polygon fill="#FFB718" points="6.437,28.192 7.279,29.354 7.095,27.932 7.622,29.266 7.798,27.843 7.976,29.266 8.5,27.932 
			8.318,29.354 9.158,28.192 8.628,29.525 9.731,28.608 8.887,29.767 10.183,29.154 9.076,30.066 10.484,29.794 9.185,30.403 
			10.617,30.49 9.208,30.756 10.573,31.197 9.142,31.104 10.355,31.87 8.991,31.423 9.975,32.467 8.765,31.697 9.459,32.952 
			8.479,31.906 8.839,33.293 8.15,32.036 8.154,33.47 7.799,32.08 7.446,33.47 7.448,32.036 6.76,33.294 7.118,31.906 6.139,32.953 
			6.832,31.698 5.623,32.468 6.607,31.425 5.243,31.871 6.456,31.104 5.025,31.197 6.389,30.756 4.98,30.492 6.412,30.403 
			5.113,29.795 6.521,30.066 5.414,29.154 6.71,29.768 5.865,28.609 6.969,29.526 		"/>
		<g>
			<path fill="#FEFEFF" d="M0.07,2.347h5.928v2.577H3.31v1.104h2.486v2.182H3.31v3.703H0.07V2.347z"/>
			<path fill="#FEFEFF" d="M7.159,2.347h3.216v9.563H7.159V2.347z"/>
			<path fill="#FEFEFF" d="M11.615,2.347h3.088l2.754,4.415l-0.042-4.415h3.077v9.563h-3.077l-2.747-4.191l0.023,4.191h-3.076V2.347
				L11.615,2.347z"/>
			<path fill="#FEFEFF" d="M40.498,2.347h3.088l2.753,4.415l-0.043-4.415h3.079v9.563h-3.079l-2.745-4.191l0.024,4.191h-3.078
				L40.498,2.347L40.498,2.347z"/>
			<path fill="#FEFEFF" d="M21.851,2.347h5.951V4.96H25.09v1.065h2.484v2.182H25.09v1.091h2.718v2.612h-5.957V2.347L21.851,2.347z"
				/>
			<path fill="#FEFEFF" d="M29.12,2.347h3.216v6.904h2.701v2.66H29.12V2.347z"/>
			<path fill="#FEFEFF" d="M36.041,2.347h3.215v9.563h-3.215V2.347z"/>
		</g>
		<g>
			<g>
				<path fill="#FEFEFF" d="M16.079,16.366v-3.148h1.253c0.229,0,0.432,0.036,0.603,0.11c0.172,0.074,0.308,0.188,0.402,0.343
					c0.094,0.153,0.14,0.349,0.14,0.582c0,0.366-0.094,0.635-0.284,0.808c-0.188,0.175-0.466,0.261-0.832,0.261h-0.466v1.044H16.079
					z M16.896,13.879v0.782h0.138c0.198,0,0.345-0.021,0.443-0.063c0.098-0.041,0.147-0.148,0.147-0.318
					c0-0.124-0.025-0.215-0.075-0.273c-0.051-0.058-0.115-0.095-0.193-0.107c-0.077-0.015-0.184-0.02-0.322-0.02H16.896z"/>
				<path fill="#FEFEFF" d="M20.472,15.076l0.988,1.29h-1.02l-0.771-1.212h-0.012v1.212h-0.815v-3.148h1.223
					c0.213,0,0.398,0.035,0.565,0.106c0.166,0.069,0.294,0.176,0.389,0.321c0.094,0.143,0.141,0.324,0.141,0.542
					c0,0.146-0.028,0.284-0.081,0.408c-0.056,0.125-0.134,0.232-0.237,0.315C20.739,14.994,20.615,15.051,20.472,15.076z
					 M19.656,13.844v0.785h0.081c0.167,0,0.304-0.028,0.411-0.083c0.105-0.055,0.16-0.159,0.16-0.31c0-0.154-0.054-0.258-0.16-0.312
					c-0.106-0.055-0.244-0.082-0.411-0.082H19.656z"/>
				<path fill="#FEFEFF" d="M22.501,13.218v3.148h-0.818v-3.148H22.501z"/>
				<path fill="#FEFEFF" d="M23.037,16.366v-3.148h0.818l1.502,1.925h0.009v-1.925h0.816v3.148h-0.816l-1.502-1.928h-0.009v1.928
					H23.037z"/>
				<path fill="#FEFEFF" d="M27.969,13.911v2.455h-0.819v-2.455h-0.678v-0.693h2.173v0.693H27.969z"/>
				<path fill="#FEFEFF" d="M28.897,14.712h1.196v0.625h-1.196V14.712z"/>
				<path fill="#FEFEFF" d="M32.163,13.113c0.229,0,0.447,0.039,0.655,0.118c0.209,0.078,0.396,0.19,0.561,0.337
					c0.166,0.147,0.292,0.318,0.387,0.515c0.093,0.197,0.14,0.415,0.14,0.65c0,0.253-0.044,0.486-0.129,0.699
					s-0.206,0.395-0.362,0.55c-0.154,0.155-0.34,0.274-0.555,0.359c-0.211,0.085-0.446,0.129-0.697,0.129
					c-0.331,0-0.629-0.074-0.896-0.222c-0.265-0.147-0.474-0.353-0.621-0.62c-0.151-0.265-0.225-0.565-0.225-0.896
					c0-0.232,0.046-0.447,0.143-0.648c0.095-0.198,0.224-0.372,0.387-0.517c0.165-0.146,0.351-0.259,0.559-0.337
					C31.719,13.152,31.938,13.113,32.163,13.113z M32.163,13.907c-0.116,0-0.23,0.022-0.339,0.067
					c-0.108,0.045-0.205,0.106-0.287,0.183c-0.082,0.079-0.146,0.167-0.193,0.268c-0.046,0.099-0.071,0.203-0.071,0.312
					c0,0.133,0.023,0.259,0.071,0.375c0.046,0.115,0.111,0.217,0.195,0.3c0.084,0.086,0.177,0.152,0.285,0.196
					c0.105,0.045,0.22,0.07,0.339,0.07c0.124,0,0.238-0.022,0.343-0.07c0.109-0.044,0.204-0.109,0.286-0.196
					c0.084-0.083,0.146-0.185,0.192-0.3c0.046-0.116,0.068-0.242,0.068-0.375c0-0.109-0.022-0.212-0.067-0.312
					c-0.045-0.101-0.108-0.189-0.192-0.268c-0.082-0.077-0.178-0.138-0.287-0.183C32.397,13.929,32.284,13.907,32.163,13.907z"/>
				<path fill="#FEFEFF" d="M34.287,16.366v-3.148h0.818l1.502,1.925h0.008v-1.925h0.818v3.148h-0.82l-1.498-1.928h-0.013v1.928
					H34.287z"/>
				<path fill="#FEFEFF" d="M37.919,14.712h1.195v0.625h-1.195V14.712z"/>
				<path fill="#FEFEFF" d="M39.606,16.366v-3.148h1.159c0.288,0,0.556,0.07,0.802,0.208c0.245,0.141,0.44,0.331,0.586,0.571
					c0.144,0.241,0.214,0.506,0.214,0.795c0,0.217-0.042,0.422-0.125,0.614c-0.081,0.193-0.198,0.359-0.347,0.504
					c-0.148,0.146-0.318,0.258-0.513,0.337c-0.194,0.079-0.398,0.119-0.617,0.119H39.606z M40.422,13.911v1.762h0.188
					c0.126,0,0.242-0.016,0.352-0.053c0.107-0.032,0.203-0.086,0.29-0.162c0.083-0.074,0.147-0.166,0.194-0.277
					c0.046-0.112,0.067-0.24,0.067-0.388c0-0.183-0.037-0.34-0.113-0.474c-0.075-0.133-0.179-0.236-0.315-0.304
					c-0.134-0.069-0.289-0.103-0.468-0.103H40.422z"/>
				<path fill="#FEFEFF" d="M44.538,13.911h-0.977v0.527h0.924v0.692h-0.924v0.542h0.977v0.693h-1.794v-3.148h1.794V13.911z"/>
				<path fill="#FEFEFF" d="M44.855,16.366l0.533-3.148h0.806l0.642,1.682l0.676-1.682h0.815l0.474,3.148h-0.816l-0.23-1.812h-0.007
					l-0.758,1.812h-0.322l-0.727-1.812h-0.006l-0.265,1.812H44.855z"/>
				<path fill="#FEFEFF" d="M51.078,15.82H49.95l-0.217,0.546h-0.869l1.213-3.148h0.894l1.188,3.148h-0.872L51.078,15.82z
					 M50.859,15.194l-0.334-1.004h-0.011l-0.337,1.004H50.859z"/>
				<path fill="#FEFEFF" d="M52.41,16.366v-3.148h0.817l1.502,1.925h0.008v-1.925h0.818v3.148h-0.818l-1.498-1.928h-0.012v1.928
					H52.41z"/>
				<path fill="#FEFEFF" d="M56.09,16.366v-3.148h1.16c0.289,0,0.555,0.07,0.8,0.208c0.247,0.141,0.441,0.331,0.584,0.571
					c0.146,0.241,0.218,0.506,0.218,0.795c0,0.217-0.042,0.422-0.123,0.614c-0.084,0.193-0.198,0.359-0.349,0.504
					c-0.147,0.146-0.321,0.258-0.513,0.337c-0.192,0.079-0.401,0.119-0.617,0.119H56.09z M56.908,13.911v1.762h0.187
					c0.125,0,0.242-0.016,0.351-0.053c0.109-0.032,0.204-0.086,0.29-0.162c0.084-0.074,0.148-0.166,0.194-0.277
					c0.046-0.112,0.068-0.24,0.068-0.388c0-0.183-0.039-0.34-0.114-0.474c-0.073-0.133-0.18-0.236-0.315-0.304
					c-0.135-0.069-0.29-0.103-0.468-0.103H56.908z"/>
			</g>
		</g>
	</g>
	<g>
		<path fill="#FEFEFF" d="M53.362,2.364v9.556H50.52V2.364H53.362z M58.817,2.364l-2.521,4.333l2.507,5.223h-3.193l-2.165-5.278
			l2.452-4.278H58.817z"/>
	</g>
	<g>
		<path fill="#FEFEFF" d="M60.143,2.729v1.473h-0.487V2.729h-0.407V2.312h1.303v0.417H60.143z"/>
		<path fill="#FEFEFF" d="M60.618,4.201l0.319-1.89h0.483l0.384,1.009l0.404-1.009h0.492l0.285,1.89h-0.492l-0.138-1.089h-0.004
			l-0.456,1.089h-0.193L61.27,3.112h-0.005l-0.16,1.089H60.618z"/>
	</g>
</g>
</svg>
